HIERARCHY
ROOT root
{
	OFFSET 0.000000 0.000000 0.000000
	CHANNELS 6 Xposition Yposition Zposition Zrotation Yrotation Xrotation
	JOINT lhip
	{
		OFFSET 0.058581 -0.082280 -0.017664
		CHANNELS 3 Zrotation Yrotation Xrotation
		JOINT lknee
		{
			OFFSET 0.043451 -0.386469 0.008037
			CHANNELS 3 Zrotation Yrotation Xrotation
			JOINT lankle
			{
				OFFSET -0.014790 -0.426874 -0.037428
				CHANNELS 3 Zrotation Yrotation Xrotation
				JOINT ltoe
				{
					OFFSET 0.041054 -0.060286 0.122042
					CHANNELS 3 Zrotation Yrotation Xrotation
					End Site
					{
						OFFSET 0.000000 0.000000 0.000000
					}
				}
			}
		}
	}
	JOINT rhip
	{
		OFFSET -0.060310 -0.090513 -0.013543
		CHANNELS 3 Zrotation Yrotation Xrotation
		JOINT rknee
		{
			OFFSET -0.043257 -0.383688 -0.004843
			CHANNELS 3 Zrotation Yrotation Xrotation
			JOINT rankle
			{
				OFFSET 0.019056 -0.420046 -0.034562
				CHANNELS 3 Zrotation Yrotation Xrotation
				JOINT rtoe
				{
					OFFSET -0.034840 -0.062106 0.130323
					CHANNELS 3 Zrotation Yrotation Xrotation
					End Site
					{
						OFFSET 0.000000 0.000000 0.000000
					}
				}
			}
		}
	}
	JOINT lowerback
	{
		OFFSET 0.004439 0.124404 -0.038385
		CHANNELS 3 Zrotation Yrotation Xrotation
		JOINT upperback
		{
			OFFSET 0.004488 0.137956 0.026820
			CHANNELS 3 Zrotation Yrotation Xrotation
			JOINT chest
			{
				OFFSET -0.002265 0.056032 0.002855
				CHANNELS 3 Zrotation Yrotation Xrotation
				JOINT lowerneck
				{
					OFFSET -0.013390 0.211636 -0.033468
					CHANNELS 3 Zrotation Yrotation Xrotation
					JOINT upperneck
					{
						OFFSET 0.010113 0.088937 0.050410
						CHANNELS 3 Zrotation Yrotation Xrotation
						End Site
						{
							OFFSET 0.000000 0.000000 0.000000
						}
					}
				}
				JOINT lclavicle
				{
					OFFSET 0.071702 0.114000 -0.018898
					CHANNELS 3 Zrotation Yrotation Xrotation
					JOINT lshoulder
					{
						OFFSET 0.122921 0.045205 -0.019046
						CHANNELS 3 Zrotation Yrotation Xrotation
						JOINT lelbow
						{
							OFFSET 0.255332 -0.015649 -0.022946
							CHANNELS 3 Zrotation Yrotation Xrotation
							JOINT lwrist
							{
								OFFSET 0.265709 0.012698 -0.007375
								CHANNELS 3 Zrotation Yrotation Xrotation
								End Site
								{
									OFFSET 0.000000 0.000000 0.000000
								}
							}
						}
					}
				}
				JOINT rclavicle
				{
					OFFSET -0.082954 0.112472 -0.023707
					CHANNELS 3 Zrotation Yrotation Xrotation
					JOINT rshoulder
					{
						OFFSET -0.113228 0.046853 -0.008472
						CHANNELS 3 Zrotation Yrotation Xrotation
						JOINT relbow
						{
							OFFSET -0.260127 -0.014369 -0.031269
							CHANNELS 3 Zrotation Yrotation Xrotation
							JOINT rwrist
							{
								OFFSET -0.269108 0.006794 -0.006027
								CHANNELS 3 Zrotation Yrotation Xrotation
								End Site
								{
									OFFSET 0.000000 0.000000 0.000000
								}
							}
						}
					}
				}
			}
		}
	}
}
MOTION
Frames: 7
Frame Time: 0.033333
0.876693 1.095642 0.933405 -97.092770 -5.029814 73.793150 11.492890 -3.137685 -18.212518 -5.620989 -5.662587 14.276880 -9.330791 2.582884 13.367039 0.000000 -0.000000 0.000000 -10.838438 -2.326456 27.203089 0.493952 15.008028 27.238417 -1.340319 -2.727980 -29.883458 0.000000 -0.000000 0.000000 -0.598441 8.185285 1.045438 2.852612 -4.620597 13.168576 -0.656299 1.207683 3.332216 3.256309 11.578430 16.738070 1.696823 6.867765 18.660276 -22.804756 8.111955 3.995632 -62.871454 3.098145 1.851717 10.618230 -26.514705 6.274673 -2.565147 -2.245600 -13.041490 22.374800 -3.504407 4.179718 57.075666 3.401319 5.078692 -14.204513 34.385109 -0.563296 8.441035 2.060452 -6.785346 
0.856639 1.084084 0.928216 -97.595714 -4.179913 74.688029 11.501326 -2.806099 -18.612156 -5.979155 -5.959531 16.027649 -11.051586 2.223122 15.324606 0.000000 -0.000000 0.000000 -11.300822 -2.547094 27.642329 0.084895 14.844102 26.794754 -1.300418 -1.817678 -29.143850 0.000000 -0.000000 0.000000 -0.286300 8.230502 1.724475 2.912537 -4.686231 12.755357 -0.605011 1.344160 2.945405 3.143639 10.270145 16.875484 2.083178 5.864840 18.500213 -22.673303 8.149482 4.098000 -62.921408 3.316289 1.389877 10.864540 -27.100997 6.045571 -3.152905 -2.242240 -13.712264 22.245955 -3.152786 4.244155 57.423957 3.650172 4.882925 -14.204222 35.437564 -0.320293 8.485593 2.029304 -7.041828 
0.836342 1.072058 0.922689 -98.166181 -3.438651 75.958609 11.300959 -3.617566 -18.568795 -6.424644 -6.462555 17.685741 -9.085084 2.770141 9.570080 0.000000 -0.000000 0.000000 -11.777199 -2.444320 27.619670 0.298745 15.045248 26.640411 -0.379008 -2.107813 -28.538049 0.000000 -0.000000 0.000000 -0.280741 8.466597 2.221302 2.733498 -4.584699 12.204324 -0.634349 1.404173 3.376513 3.334867 10.802550 14.896252 2.342734 6.335010 18.297437 -22.662416 7.821601 3.909726 -62.567747 3.138030 1.269318 11.076350 -27.410107 5.092061 -1.811535 -2.173979 -14.051921 22.663231 -2.745736 3.887204 57.696049 4.286897 5.707235 -14.584501 35.921270 -0.956490 8.360410 1.862418 -6.765366 
0.815600 1.059853 0.917569 -98.630569 -2.609495 77.644525 11.311975 -3.905005 -19.186320 -6.542244 -5.152148 19.248639 -5.929476 3.371395 1.343560 0.000000 -0.000000 0.000000 -12.225444 -2.209590 27.244345 0.279077 14.836613 26.452844 1.096307 -1.511125 -27.343757 0.000000 -0.000000 0.000000 -0.821878 8.797970 2.404475 2.791520 -4.496732 11.887401 -0.586394 1.489048 4.039029 3.997936 10.845085 13.545517 2.497157 5.430071 18.086371 -22.348509 7.837819 3.155530 -62.448143 2.356950 1.713052 11.191873 -27.195450 4.269646 -0.733315 -2.606810 -14.106125 23.070848 -2.423320 2.820600 58.115704 4.698217 7.206323 -15.114188 35.976789 -1.792280 8.168527 1.791642 -6.860493 
0.796916 1.046842 0.914412 -98.089208 -2.024383 79.641204 10.709672 -4.014295 -21.612162 -7.138151 -3.975277 21.736261 -2.578808 3.747899 -3.359842 0.000000 -0.000000 0.000000 -12.639509 -2.120668 26.213487 0.609042 14.796682 26.519323 2.403674 -1.250924 -24.634854 0.000000 -0.000000 0.000000 -1.694418 9.211860 3.692714 2.737433 -4.711656 10.245681 -0.391142 1.363902 4.132048 4.148164 9.630192 12.165923 2.765132 4.695452 19.130814 -22.314351 6.914942 3.802512 -61.975238 1.269702 1.707751 11.386425 -26.804106 3.878809 -0.252203 -2.706506 -14.312425 23.149108 -2.087034 2.966493 59.162073 5.426489 7.855506 -15.826168 35.412353 -2.390873 8.802278 2.015750 -7.290238 
0.780916 1.035098 0.915001 -96.400138 -1.486961 81.472467 10.138744 -4.971725 -24.534512 -7.491920 -3.157670 24.624155 -1.564765 3.122659 -5.388912 0.000000 -0.000000 0.000000 -11.978031 -2.099060 24.966953 0.336848 14.215697 27.331557 3.259087 -0.988120 -21.060706 0.000000 -0.000000 0.000000 -3.112826 9.973255 4.776775 2.930497 -5.152887 11.044011 -0.085559 1.245813 3.350785 4.542726 8.727400 10.889350 3.672812 3.080142 18.083125 -21.937699 4.934839 3.769226 -61.909633 -0.216822 2.485463 12.513873 -27.136637 2.921999 -0.140625 -2.332904 -14.341850 23.424019 -0.922407 2.893059 60.397367 5.574018 8.388740 -17.734272 35.106823 -4.384514 9.428710 2.036120 -8.525652 
0.763315 1.024013 0.917907 -95.540121 -1.267339 83.453719 9.884252 -5.544838 -25.756954 -8.113896 -2.433896 24.954979 -0.576548 2.775089 -7.658120 0.000000 -0.000000 0.000000 -12.216769 -2.205097 23.229608 0.092809 13.894953 28.043362 4.879418 0.567835 -16.453733 0.000000 -0.000000 0.000000 -4.530786 11.443567 5.504373 2.829777 -4.650107 10.766673 0.091083 1.090398 3.404625 4.951328 7.628878 11.153908 4.905471 2.040208 16.243945 -20.911295 3.410986 4.283806 -61.966328 -1.899822 3.198508 13.347368 -29.203737 2.157437 0.522777 -2.657832 -14.393717 22.943165 -0.320741 3.210634 62.050215 5.361171 8.680346 -18.356126 35.562583 -4.994572 10.174573 1.745439 -9.361969 
